<svg width="166" height="88" viewBox="0 0 166 88" fill="none" xmlns="http://www.w3.org/2000/svg">
<path d="M92.2677 42.0815L94.6684 38.6848C96.7178 35.7913 97.7718 32.143 97.7718 28.4946C97.7718 19.1222 90.6282 11.4482 81.9037 11.4482H81.6695H80.2056H70.7785C67.8508 11.4482 65.4501 14.0272 65.4501 17.1723V34.659C65.4501 37.6154 64.3961 40.3831 62.4638 42.4589L61 44.0315L62.4638 45.604C64.3961 47.6798 65.4501 50.4475 65.4501 53.4039V70.8906C65.4501 74.0358 67.8508 76.6147 70.7785 76.6147H77.3951V72.2116H70.7785C70.0758 72.2116 69.4903 71.5826 69.4903 70.8277V66.4246H91.6822C89.5157 69.9471 85.7683 72.2116 81.6695 72.2116H80.2642V76.6147H89.5157C98.4159 76.6147 105.677 68.8149 105.677 59.2538C105.677 50.6362 99.8797 43.5282 92.2677 42.0815ZM99.5869 52.02H96.3665C95.5467 50.0701 94.3171 48.2459 92.9118 46.7363C95.6638 47.554 98.006 49.5039 99.5869 52.02ZM68.7291 48.3088C68.2021 46.7992 67.4995 45.2895 66.5626 44.0315C68.4363 41.3896 69.4903 38.1187 69.4903 34.722V17.1723C69.4903 16.4174 70.0758 15.7884 70.7785 15.7884H80.2642H81.728H81.9623C88.4617 15.7884 93.7316 21.4496 93.7316 28.4317C93.7316 31.1365 92.9118 33.8413 91.3894 35.98L82.8406 48.3717C82.5478 48.3088 82.1965 48.2459 81.8451 48.2459C81.2596 48.2459 80.7326 48.3088 80.2056 48.4975C79.0346 48.8749 78.0392 49.6926 77.3365 50.762C77.1023 51.1394 76.8681 51.5168 76.751 51.9571H71.2469L77.3365 43.1508L80.2056 38.9993L81.9037 36.5461C82.0208 36.5461 82.1379 36.5461 82.255 36.5461C85.2998 36.5461 87.7591 33.9042 87.7591 30.6333C87.7591 27.3624 85.2998 24.7205 82.255 24.7205C81.5524 24.7205 80.8497 24.8463 80.2056 25.1608C78.976 25.727 77.922 26.7334 77.3365 28.0543C76.9852 28.8721 76.751 29.7527 76.751 30.6962C76.751 31.6397 76.9852 32.5204 77.3365 33.2752C77.5707 33.7784 77.8635 34.2187 78.2148 34.5961L77.3365 35.8542L68.7291 48.3088ZM91.6822 52.02H86.9979C86.8222 51.5797 86.588 51.0765 86.2952 50.6991L88.0518 48.183C89.5157 49.1894 90.7453 50.5104 91.6822 52.02ZM83.309 54.1587C83.309 55.0393 82.6649 55.7312 81.8451 55.7312C81.0254 55.7312 80.3813 55.0393 80.3813 54.1587C80.3813 53.2781 81.0254 52.5861 81.8451 52.5861C82.6649 52.649 83.309 53.341 83.309 54.1587ZM80.8497 30.6333C80.8497 29.7527 81.4938 29.0608 82.3136 29.0608C83.1333 29.0608 83.7774 29.7527 83.7774 30.6333C83.7774 31.5139 83.1333 32.2059 82.3136 32.2059C81.4938 32.2059 80.8497 31.5139 80.8497 30.6333ZM69.4903 62.0215V56.4232H76.751C76.9266 56.8635 77.1023 57.2409 77.3365 57.6183C78.0392 58.6876 79.0346 59.5054 80.2056 59.8828C80.7326 60.0715 81.2596 60.1344 81.8451 60.1344C84.1287 60.1344 86.1196 58.6247 86.9393 56.4232H93.3802C93.5559 57.3038 93.673 58.2473 93.673 59.2538C93.673 59.5054 93.673 59.757 93.673 60.0086V60.386C93.6145 60.9521 93.5559 61.5182 93.4388 62.0844H69.4903V62.0215ZM92.7947 71.7084C94.2586 70.1987 95.4296 68.4375 96.3079 66.4246H99.5284C98.006 68.9407 95.6053 70.8277 92.7947 71.7084ZM97.5961 62.0215C97.5961 61.8327 97.6547 61.644 97.6547 61.5182L97.7132 60.7005C97.7718 60.1973 97.7718 59.757 97.7718 59.1909C97.7718 58.2473 97.7132 57.3038 97.5376 56.4232H101.285C101.461 57.3038 101.578 58.2473 101.578 59.2538C101.578 60.1973 101.461 61.1408 101.285 62.0844H97.5961V62.0215Z" fill="#587ABC"/>
</svg>
